<?xml version="1.0" encoding="UTF-8"?>
<svg xmlns="http://www.w3.org/2000/svg" xmlns:se="https://standardebooks.org/vocab/1.0" version="1.1" viewBox="0 0 1400 790" se:generated-from="d69f9a63a86953b1bd8887a534e1f3c15bae5ca4">
	<path d="M 169.4035,68.245613 187.74268,68.245613 187.74268,130 205.33333,130 205.33333,68.245613 223.67251,68.245613 223.67251,52.807016 169.4035,52.807016 169.4035,68.245613 Z"/>
	<path d="M 294.23537,130 313.69736,130 335.68567,52.807016 316.22368,52.807016 303.03069,105.76608 302.56286,105.76608 288.52777,52.807016 275.24122,52.807016 261.20613,105.76608 260.7383,105.76608 247.54531,52.807016 227.98976,52.807016 249.97806,130 269.53362,130 281.8845,86.678362 294.23537,130 Z"/>
	<path d="M 389.0687,52.807016 344.90495,52.807016 344.90495,130 389.0687,130 389.0687,114.5614 362.4956,114.5614 362.4956,99.029239 387.94589,99.029239 387.94589,83.590642 362.4956,83.590642 362.4956,68.245613 389.0687,68.245613 389.0687,52.807016 Z"/>
	<path d="M 421.77192,82.093566 421.95905,82.093566 452.64911,130 470.23976,130 470.23976,52.807016 452.64911,52.807016 452.64911,100.71345 452.46198,100.71345 421.77192,52.807016 404.18127,52.807016 404.18127,130 421.77192,130 421.77192,82.093566 Z"/>
	<path d="M 477.04971,68.245613 495.38889,68.245613 495.38889,130 512.97953,130 512.97953,68.245613 531.31872,68.245613 531.31872,52.807016 477.04971,52.807016 477.04971,68.245613 Z"/>
	<path d="M 534.23244,52.807016 562.67688,95.380116 562.67688,130 580.26752,130 580.26752,95.380116 608.71197,52.807016 587.56577,52.807016 571.4722,77.508771 555.37863,52.807016 534.23244,52.807016 Z"/>
	<path d="M 637.70028,68.245613 656.03947,68.245613 656.03947,130 673.63011,130 673.63011,68.245613 691.96929,68.245613 691.96929,52.807016 637.70028,52.807016 637.70028,68.245613 Z"/>
	<path d="M 720.89474,99.029239 745.78363,99.029239 745.78363,130 763.37427,130 763.37427,52.807016 745.78363,52.807016 745.78363,83.590642 720.89474,83.590642 720.89474,52.807016 703.30409,52.807016 703.30409,130 720.89474,130 720.89474,99.029239 Z"/>
	<path d="M 776.11402,91.356724 C 776.11402,113.90643 792.20758,131.40351 815.03799,131.40351 837.21343,131.40351 853.8684,113.90643 853.8684,91.356724 853.8684,68.807016 836.46489,51.403507 815.03799,51.403507 793.79823,51.403507 776.11402,68.807016 776.11402,91.356724 Z M 795.10817,91.356724 C 795.10817,79.847952 801.47074,68.33918 815.03799,68.33918 828.69881,68.33918 834.87425,79.847952 834.87425,91.356724 834.87425,102.8655 829.07308,114.37427 815.03799,114.37427 800.62864,114.37427 795.10817,102.8655 795.10817,91.356724 Z"/>
	<path d="M 925.95178,52.807016 908.36114,52.807016 908.36114,97.438596 C 908.36114,110.35088 904.43131,114.09357 895.82313,114.09357 887.21494,114.09357 883.28511,110.35088 883.28511,97.438596 L 883.28511,52.807016 865.69447,52.807016 865.69447,102.58479 C 865.69447,121.67251 876.174,131.40351 895.82313,131.40351 915.47225,131.40351 925.95178,121.67251 925.95178,102.58479 L 925.95178,52.807016 Z"/>
	<path d="M 967.87427,51.403507 C 955.42983,51.403507 942.70468,60.573098 942.70468,74.982455 942.70468,83.029239 948.13158,90.233917 957.39474,94.818713 966.56433,99.403508 974.79825,101.92982 974.79825,107.54386 974.79825,114.74854 967.5,115.12281 963.66374,115.12281 955.05556,115.12281 944.76316,106.42105 944.76316,106.42105 L 935.96784,121.20468 C 935.96784,121.20468 946.91521,131.40351 964.97368,131.40351 980.03801,131.40351 994.0731,124.94737 994.0731,106.51462 994.0731,96.409356 984.62281,89.11111 976.01462,85.461988 967.2193,81.719297 959.92105,78.631578 959.92105,74.327484 959.92105,70.116958 963.10234,67.403508 969.09064,67.403508 977.04386,67.403508 984.71638,72.736841 984.71638,72.736841 L 991.82749,58.701753 C 991.82749,58.701753 981.90936,51.403507 967.87427,51.403507 Z"/>
	<path d="M 1046.5,52.807016 1030.2193,52.807016 999.06139,130 1017.962,130 1023.6696,114.5614 1053.0497,114.5614 1058.7573,130 1077.6579,130 1046.5,52.807016 Z M 1047.0614,99.122806 1029.6579,99.122806 1038.2661,76.666666 1038.4532,76.666666 1047.0614,99.122806 Z"/>
	<path d="M 1103.1681,82.093566 1103.3552,82.093566 1134.0453,130 1151.6359,130 1151.6359,52.807016 1134.0453,52.807016 1134.0453,100.71345 1133.8582,100.71345 1103.1681,52.807016 1085.5775,52.807016 1085.5775,130 1103.1681,130 1103.1681,82.093566 Z"/>
	<path d="M 1167.8801,52.807016 1167.8801,130 1190.2427,130 C 1211.4825,130 1229.1667,113.90643 1229.1667,91.356724 1229.1667,68.900584 1211.3889,52.807016 1190.2427,52.807016 L 1167.8801,52.807016 Z M 1185.4708,114.2807 1185.4708,68.526315 1188.1842,68.526315 C 1201.2837,68.526315 1210.1725,78.538011 1210.1725,91.450292 1210.079,104.36257 1201.1901,114.2807 1188.1842,114.2807 L 1185.4708,114.2807 Z"/>
	<path d="M 289.14765,152.80702 271.55701,152.80702 271.55701,230 315.72075,230 315.72075,214.5614 289.14765,214.5614 289.14765,152.80702 Z"/>
	<path d="M 373.53508,152.80702 329.37134,152.80702 329.37134,230 373.53508,230 373.53508,214.5614 346.96198,214.5614 346.96198,199.02924 372.41227,199.02924 372.41227,183.59064 346.96198,183.59064 346.96198,168.24561 373.53508,168.24561 373.53508,152.80702 Z"/>
	<path d="M 428.40058,152.80702 412.11987,152.80702 380.96198,230 399.86256,230 405.57017,214.5614 434.95028,214.5614 440.65789,230 459.55847,230 428.40058,152.80702 Z M 428.96198,199.12281 411.55847,199.12281 420.16666,176.66667 420.35379,176.66667 428.96198,199.12281 Z"/>
	<path d="M 537.27923,186.77193 501.63011,186.77193 501.63011,200.33918 519.40789,200.33918 C 519.40789,209.78947 511.0804,215.21637 502.65935,215.21637 491.80555,215.21637 483.01023,204.54971 483.01023,191.45029 483.01023,178.07017 491.80555,167.30994 502.65935,167.30994 509.48976,167.30994 515.3845,170.02339 519.87572,177.22807 L 531.3845,164.59649 C 524.64765,156.45614 515.19736,151.40351 501.63011,151.40351 479.92251,151.40351 464.01607,169.27485 464.01607,191.45029 464.01607,213.53216 480.85818,231.40351 501.63011,231.40351 516.788,231.40351 533.06871,223.07602 537.27923,203.52047 L 537.27923,186.77193 Z"/>
	<path d="M 609.28508,152.80702 591.69444,152.80702 591.69444,197.4386 C 591.69444,210.35088 587.76461,214.09357 579.15643,214.09357 570.54824,214.09357 566.61841,210.35088 566.61841,197.4386 L 566.61841,152.80702 549.02777,152.80702 549.02777,202.58479 C 549.02777,221.67251 559.5073,231.40351 579.15643,231.40351 598.80555,231.40351 609.28508,221.67251 609.28508,202.58479 L 609.28508,152.80702 Z"/>
	<path d="M 668.75438,152.80702 624.59064,152.80702 624.59064,230 668.75438,230 668.75438,214.5614 642.18128,214.5614 642.18128,199.02924 667.63158,199.02924 667.63158,183.59064 642.18128,183.59064 642.18128,168.24561 668.75438,168.24561 668.75438,152.80702 Z"/>
	<path d="M 712.31139,151.40351 C 699.86695,151.40351 687.1418,160.5731 687.1418,174.98246 687.1418,183.02924 692.5687,190.23392 701.83186,194.81871 711.00145,199.40351 719.23537,201.92982 719.23537,207.54386 719.23537,214.74854 711.93712,215.12281 708.10087,215.12281 699.49268,215.12281 689.20028,206.42105 689.20028,206.42105 L 680.40496,221.20468 C 680.40496,221.20468 691.35233,231.40351 709.41081,231.40351 724.47513,231.40351 738.51022,224.94737 738.51022,206.51462 738.51022,196.40936 729.05993,189.11111 720.45174,185.46199 711.65642,181.7193 704.35818,178.63158 704.35818,174.32748 704.35818,170.11696 707.53946,167.40351 713.52777,167.40351 721.48098,167.40351 729.1535,172.73684 729.1535,172.73684 L 736.26461,158.70175 C 736.26461,158.70175 726.34648,151.40351 712.31139,151.40351 Z"/>
	<path d="M 841.6389,152.80702 824.04826,152.80702 824.04826,197.4386 C 824.04826,210.35088 820.11843,214.09357 811.51025,214.09357 802.90206,214.09357 798.97224,210.35088 798.97224,197.4386 L 798.97224,152.80702 781.38159,152.80702 781.38159,202.58479 C 781.38159,221.67251 791.86112,231.40351 811.51025,231.40351 831.15937,231.40351 841.6389,221.67251 841.6389,202.58479 L 841.6389,152.80702 Z"/>
	<path d="M 874.53511,182.09357 874.72224,182.09357 905.4123,230 923.00294,230 923.00294,152.80702 905.4123,152.80702 905.4123,200.71345 905.22516,200.71345 874.53511,152.80702 856.94446,152.80702 856.94446,230 874.53511,230 874.53511,182.09357 Z"/>
	<path d="M 939.24707,152.80702 939.24707,230 961.60965,230 C 982.84941,230 1000.5336,213.90643 1000.5336,191.35672 1000.5336,168.90058 982.75585,152.80702 961.60965,152.80702 L 939.24707,152.80702 Z M 956.83772,214.2807 956.83772,168.52631 959.55117,168.52631 C 972.65058,168.52631 981.53947,178.53801 981.53947,191.45029 981.44591,204.36257 972.55702,214.2807 959.55117,214.2807 L 956.83772,214.2807 Z"/>
	<path d="M 1057.4898,152.80702 1013.3261,152.80702 1013.3261,230 1057.4898,230 1057.4898,214.5614 1030.9167,214.5614 1030.9167,199.02924 1056.367,199.02924 1056.367,183.59064 1030.9167,183.59064 1030.9167,168.24561 1057.4898,168.24561 1057.4898,152.80702 Z"/>
	<path d="M 1072.6024,152.80702 1072.6024,230 1090.193,230 1090.193,199.49708 1113.772,230 1136.1345,230 1109.5614,198.09357 C 1119.0117,195.09941 1125.3743,187.33333 1125.3743,175.73099 1125.3743,160.5731 1114.5205,152.80702 1100.2047,152.80702 L 1072.6024,152.80702 Z M 1090.193,187.05263 1090.193,166.8421 1092.2515,166.8421 C 1098.8948,166.8421 1106.848,167.30994 1106.848,176.94737 1106.848,186.58479 1098.8948,187.05263 1092.2515,187.05263 L 1090.193,187.05263 Z"/>
	<path d="M 454.72149,268.24558 473.06067,268.24558 473.06067,329.99997 490.65131,329.99997 490.65131,268.24558 508.99049,268.24558 508.99049,252.80699 454.72149,252.80699 454.72149,268.24558 Z"/>
	<path d="M 537.91593,299.02921 562.80482,299.02921 562.80482,329.99997 580.39547,329.99997 580.39547,252.80699 562.80482,252.80699 562.80482,283.59061 537.91593,283.59061 537.91593,252.80699 520.32529,252.80699 520.32529,329.99997 537.91593,329.99997 537.91593,299.02921 Z"/>
	<path d="M 640.76097,252.80699 596.59722,252.80699 596.59722,329.99997 640.76097,329.99997 640.76097,314.56137 614.18787,314.56137 614.18787,299.02921 639.63816,299.02921 639.63816,283.59061 614.18787,283.59061 614.18787,268.24558 640.76097,268.24558 640.76097,252.80699 Z"/>
	<path d="M 713.0753,251.40348 C 700.63085,251.40348 687.90571,260.57307 687.90571,274.98242 687.90571,283.02921 693.33261,290.23389 702.59577,294.81868 711.76536,299.40348 719.99928,301.92979 719.99928,307.54383 719.99928,314.74851 712.70103,315.12278 708.86477,315.12278 700.25658,315.12278 689.96419,306.42102 689.96419,306.42102 L 681.16887,321.20465 C 681.16887,321.20465 692.11623,331.40348 710.17471,331.40348 725.23904,331.40348 739.27413,324.94734 739.27413,306.51459 739.27413,296.40933 729.82384,289.11108 721.21565,285.46196 712.42033,281.71927 705.12208,278.63155 705.12208,274.32745 705.12208,270.11693 708.30337,267.40348 714.29167,267.40348 722.24489,267.40348 729.9174,272.73681 729.9174,272.73681 L 737.02852,258.70172 C 737.02852,258.70172 727.11039,251.40348 713.0753,251.40348 Z"/>
	<path d="M 796.66009,252.80699 752.49635,252.80699 752.49635,329.99997 796.66009,329.99997 796.66009,314.56137 770.08699,314.56137 770.08699,299.02921 795.53728,299.02921 795.53728,283.59061 770.08699,283.59061 770.08699,268.24558 796.66009,268.24558 796.66009,252.80699 Z"/>
	<path d="M 851.52558,252.80699 835.24488,252.80699 804.08698,329.99997 822.98757,329.99997 828.69517,314.56137 858.07529,314.56137 863.78289,329.99997 882.68348,329.99997 851.52558,252.80699 Z M 852.08698,299.12278 834.68348,299.12278 843.29166,276.66664 843.4788,276.66664 852.08698,299.12278 Z"/>
	<path d="M 917.22003,251.40348 C 904.77558,251.40348 892.05044,260.57307 892.05044,274.98242 892.05044,283.02921 897.47734,290.23389 906.7405,294.81868 915.91009,299.40348 924.144,301.92979 924.144,307.54383 924.144,314.74851 916.84576,315.12278 913.0095,315.12278 904.40131,315.12278 894.10892,306.42102 894.10892,306.42102 L 885.31359,321.20465 C 885.31359,321.20465 896.26096,331.40348 914.31944,331.40348 929.38377,331.40348 943.41886,324.94734 943.41886,306.51459 943.41886,296.40933 933.96857,289.11108 925.36038,285.46196 916.56506,281.71927 909.26681,278.63155 909.26681,274.32745 909.26681,270.11693 912.4481,267.40348 918.4364,267.40348 926.38962,267.40348 934.06213,272.73681 934.06213,272.73681 L 941.17324,258.70172 C 941.17324,258.70172 931.25512,251.40348 917.22003,251.40348 Z"/>
	<path d="M 469.13761,432.10526 455.94463,432.10526 455.94463,470.2807 C 455.94463,476.10526 453.06744,478.42105 449.27796,478.42105 445.90954,478.42105 441.76919,474.49123 441.76919,474.49123 L 437.55866,485.50877 C 437.55866,485.50877 442.82182,491.05263 451.10252,491.05263 462.68147,491.05263 469.13761,485.01754 469.13761,473.64912 L 469.13761,432.10526 Z"/>
	<path d="M 526.33059,432.10526 513.13761,432.10526 513.13761,465.57895 C 513.13761,475.26316 510.19024,478.07018 503.7341,478.07018 497.27796,478.07018 494.33059,475.26316 494.33059,465.57895 L 494.33059,432.10526 481.13761,432.10526 481.13761,469.4386 C 481.13761,483.75439 488.99726,491.05263 503.7341,491.05263 518.47095,491.05263 526.33059,483.75439 526.33059,469.4386 L 526.33059,432.10526 Z"/>
	<path d="M 552.25274,432.10526 539.05976,432.10526 539.05976,490 572.18256,490 572.18256,478.42105 552.25274,478.42105 552.25274,432.10526 Z"/>
	<path d="M 616.79331,432.10526 583.67051,432.10526 583.67051,490 616.79331,490 616.79331,478.42105 596.86349,478.42105 596.86349,466.77193 615.95121,466.77193 615.95121,455.19298 596.86349,455.19298 596.86349,443.68421 616.79331,443.68421 616.79331,432.10526 Z"/>
	<path d="M 650.71107,431.05263 C 641.37773,431.05263 631.83388,437.92983 631.83388,448.73684 631.83388,454.77193 635.90405,460.17544 642.85142,463.61404 649.72861,467.05263 655.90405,468.94737 655.90405,473.15789 655.90405,478.5614 650.43037,478.84211 647.55317,478.84211 641.09703,478.84211 633.37773,472.31579 633.37773,472.31579 L 626.78124,483.40351 C 626.78124,483.40351 634.99177,491.05263 648.53563,491.05263 659.83387,491.05263 670.36019,486.21053 670.36019,472.38597 670.36019,464.80702 663.27247,459.33333 656.81633,456.59649 650.21984,453.78947 644.74616,451.47368 644.74616,448.24561 644.74616,445.08772 647.13212,443.05263 651.62335,443.05263 657.58826,443.05263 663.34265,447.05263 663.34265,447.05263 L 668.67598,436.52632 C 668.67598,436.52632 661.23738,431.05263 650.71107,431.05263 Z"/>
	<path d="M 717.92709,490 728.31305,490 752.59376,432.10526 737.71656,432.10526 723.12007,470.14035 708.52358,432.10526 693.64639,432.10526 717.92709,490 Z"/>
	<path d="M 792.90624,432.10526 759.78344,432.10526 759.78344,490 792.90624,490 792.90624,478.42105 772.97642,478.42105 772.97642,466.77193 792.06414,466.77193 792.06414,455.19298 772.97642,455.19298 772.97642,443.68421 792.90624,443.68421 792.90624,432.10526 Z"/>
	<path d="M 805.49068,432.10526 805.49068,490 818.68366,490 818.68366,467.12281 836.36787,490 853.1398,490 833.20998,466.07018 C 840.2977,463.82456 845.06963,458 845.06963,449.29825 845.06963,437.92983 836.92928,432.10526 826.19243,432.10526 L 805.49068,432.10526 Z M 818.68366,457.78947 818.68366,442.63158 820.22752,442.63158 C 825.20998,442.63158 831.17489,442.98246 831.17489,450.21053 831.17489,457.4386 825.20998,457.78947 820.22752,457.78947 L 818.68366,457.78947 Z"/>
	<path d="M 873.98521,454.07018 874.12556,454.07018 897.1431,490 910.33608,490 910.33608,432.10526 897.1431,432.10526 897.1431,468.03509 897.00275,468.03509 873.98521,432.10526 860.79222,432.10526 860.79222,490 873.98521,490 873.98521,454.07018 Z"/>
	<path d="M 956.89199,432.10526 923.76918,432.10526 923.76918,490 956.89199,490 956.89199,478.42105 936.96217,478.42105 936.96217,466.77193 956.04989,466.77193 956.04989,455.19298 936.96217,455.19298 936.96217,443.68421 956.89199,443.68421 956.89199,432.10526 Z"/>
	<path d="M 594.75525,663.42189 C 594.75525,664.61212 597.26322,663.67694 597.26322,664.56961 597.26322,665.71732 595.47789,672.60361 595.47789,676.51435 595.47789,679.82997 597.05068,680.5101 598.1984,680.5101 600.83389,680.5101 604.44707,677.61955 604.44707,676.51435 604.44707,675.91923 604.107,675.91923 603.97948,675.91923 603.29935,675.91923 602.32167,677.78959 599.98373,677.78959 599.8137,677.78959 598.2409,677.70457 598.2409,675.45165 598.2409,674.77152 599.21859,669.24548 599.60116,666.60999 599.85621,664.86716 599.72868,664.10202 600.96141,664.10202 601.89659,664.10202 603.72443,664.31456 604.40456,664.31456 605.1697,664.31456 605.42475,664.05951 605.42475,663.08183 605.42475,662.57173 605.21221,662.27418 604.31954,662.27418 603.85196,662.27418 603.51189,662.31668 601.85408,662.31668 600.45132,662.31668 600.3663,662.27418 600.3663,662.01913 600.3663,661.38151 601.13145,659.38364 601.13145,658.83103 601.13145,658.44846 600.91891,658.32094 600.70637,658.32094 600.02624,658.32094 599.94122,658.87354 598.2409,660.65887 596.37055,662.61424 594.75525,662.57173 594.75525,663.42189 Z"/>
	<path d="M 606.86272,667.41764 C 606.86272,668.01275 607.20278,668.14028 607.37281,668.14028 607.58535,668.14028 607.71287,668.01275 607.8404,667.88523 608.09545,667.58767 608.43551,665.03719 610.17834,665.03719 610.94348,665.03719 611.62361,665.80234 611.62361,667.92774 611.62361,671.11583 609.79577,677.36451 609.79577,679.06482 609.79577,680.08502 610.64592,680.17003 611.071,680.17003 L 611.28354,680.17003 C 612.81383,680.17003 612.72882,680.17003 613.66399,672.94368 L 613.87653,671.54091 C 614.08907,669.75558 615.15177,664.18704 617.06463,664.18704 618.59491,664.18704 618.42488,665.97237 619.36006,665.97237 620.1252,665.97237 620.21022,664.65462 620.29523,664.35707 620.42276,663.88948 620.76282,663.33688 620.76282,662.78427 620.76282,662.18916 620.29523,661.46653 619.19003,661.46653 616.04444,661.46653 613.91904,665.84485 613.62148,665.84485 613.53647,665.84485 613.49396,665.80234 612.43126,663.03932 612.17621,662.35919 611.75113,661.55154 610.85846,661.55154 610.47589,661.55154 606.86272,662.57173 606.86272,667.41764 Z"/>
	<path d="M 620.45398,675.15409 C 620.45398,677.91711 620.96407,680.63762 625.00233,680.63762 629.04059,680.63762 632.56875,675.53666 632.78129,675.53666 633.07884,675.53666 632.69627,680.29756 635.41678,680.29756 636.5645,680.29756 638.47735,678.34219 639.54005,676.8119 640.09266,676.04676 640.3052,675.40914 640.3052,674.98406 640.3052,674.81403 640.26269,674.51647 639.92263,674.51647 639.11497,674.51647 638.22231,677.27949 636.81954,677.27949 636.01189,677.27949 635.37427,675.87673 635.37427,674.77152 635.37427,673.15622 635.79935,671.20085 636.13942,669.3305 636.47948,667.41764 636.73453,665.46227 637.1171,663.88948 637.41466,662.65675 637.96726,661.63656 637.96726,660.95643 637.96726,660.48884 637.75472,660.31881 637.49967,660.31881 636.64951,660.31881 636.13942,662.4017 635.28926,662.4017 633.88649,662.4017 632.99383,661.93411 631.67608,661.93411 630.57087,661.93411 629.72071,662.14665 628.573,662.69926 626.32008,663.76196 624.36471,665.80234 622.83442,668.22529 621.51667,670.35069 620.45398,672.77365 620.45398,675.15409 Z M 623.42953,674.89904 C 623.42953,674.1339 623.51455,673.36876 623.64207,672.60361 624.02465,670.3932 625.04484,668.48034 626.27757,666.43996 627.55281,664.27205 629.80573,662.99681 631.54856,662.99681 632.44122,662.99681 634.35408,663.29437 634.35408,664.48459 634.35408,664.61212 633.20637,672.43358 632.18618,674.47396 631.8036,675.23911 629.80573,678.29968 626.74516,678.29968 624.95982,678.29968 623.42953,677.02444 623.42953,674.89904 Z"/>
	<path d="M 641.69999,666.35494 C 641.69999,666.82253 641.78501,667.16259 642.08256,667.16259 643.01774,667.16259 643.48533,664.78215 644.80307,664.78215 645.22815,664.78215 645.78076,665.63231 645.78076,667.12009 645.78076,670.3932 643.9104,676.98193 643.9104,678.76727 643.9104,680 644.25047,680.08502 645.39818,680.08502 646.50339,680.08502 646.84345,679.91498 646.97098,678.97981 647.05599,678.3847 646.75844,678.89479 647.82114,673.15622 648.84133,667.67269 648.33123,668.05526 650.15908,665.46227 651.13676,664.05951 651.94441,663.59192 652.92209,663.59192 655.68511,663.59192 655.89765,666.39745 655.89765,667.07758 655.89765,668.65037 655.00498,674.34644 655.00498,677.57705 655.00498,679.06482 655.72762,680.25505 656.57778,680.25505 658.44813,680.25505 662.18883,677.27949 662.18883,675.62168 662.18883,675.36663 662.10382,675.11158 661.80626,675.11158 661.16864,675.11158 660.99861,675.62168 660.48851,676.2593 660.48851,676.2593 659.51083,677.19447 658.78819,677.19447 658.32061,677.19447 657.98054,676.85441 657.98054,675.66419 657.98054,674.21892 658.70318,669.71307 658.70318,666.73751 658.70318,664.05951 658.10807,661.42402 655.13251,661.42402 653.34717,661.42402 651.09425,662.9543 649.94654,663.84697 648.37374,665.03719 648.07619,665.97237 647.82114,665.97237 647.43857,665.97237 648.33123,661.50903 645.86577,661.50903 644.25047,661.50903 641.69999,664.69713 641.69999,666.35494 Z"/>
	<path d="M 663.65071,677.70457 C 663.65071,679.95749 666.71128,680.5101 668.36909,680.5101 673.81011,680.5101 675.00034,676.47184 675.00034,674.94155 675.00034,672.09352 673.38503,670.90329 672.06729,669.41552 671.0471,668.31031 668.70916,666.56748 668.70916,664.95218 668.70916,663.67694 669.34678,662.69926 670.96208,662.69926 672.61989,662.69926 672.78992,665.0797 674.32021,665.0797 674.53275,665.0797 675.93551,664.95218 675.93551,663.63443 675.93551,661.97662 674.2777,661.42402 671.98227,661.42402 668.66665,661.42402 666.20119,663.37938 666.20119,666.22742 666.20119,668.7779 667.81649,669.8831 669.51681,671.62593 671.0471,673.15622 672.44986,674.38895 672.44986,676.38682 672.44986,676.89692 672.1523,679.10733 669.04922,679.10733 666.45623,679.10733 667.17887,676.17428 665.01096,676.17428 664.50087,676.17428 663.65071,676.38682 663.65071,677.70457 Z"/>
	<path d="M 678.75033,676.34431 C 678.75033,680.34006 679.98306,680.34006 680.83322,680.34006 681.64087,680.34006 683.42621,679.4899 684.53142,678.21467 685.55161,677.02444 686.65681,675.57917 686.65681,675.15409 686.65681,674.72901 686.44427,674.47396 686.14672,674.47396 685.04151,674.47396 684.61643,677.49203 682.27849,677.49203 681.72589,677.49203 681.59837,677.27949 681.59837,675.83422 681.59837,674.38895 682.10846,671.71095 682.8311,666.69501 684.19135,657.55579 683.46872,659.12859 685.04151,650.88204 685.16903,650.07439 685.46659,649.52179 685.46659,648.92667 685.46659,648.5016 685.25405,648.24655 684.57392,648.24655 683.46872,648.24655 682.53354,648.67163 679.43046,648.88417 678.87786,648.92667 678.79284,649.26674 678.79284,649.47928 678.79284,649.94687 679.17541,650.07439 680.02557,650.07439 680.53567,650.07439 680.62068,650.03188 681.2583,650.03188 681.89592,650.03188 682.321,650.37195 682.321,650.88204 682.321,651.39214 681.68338,655.21785 680.96075,659.80871 680.53567,662.52922 680.32313,665.54729 679.94055,668.22529 679.85554,668.90542 678.75033,673.92136 678.75033,676.34431 Z"/>
	<path d="M 689.28036,675.15409 C 689.28036,677.91711 689.79045,680.63762 693.82871,680.63762 697.86697,680.63762 701.39513,675.53666 701.60767,675.53666 701.90522,675.53666 701.52265,680.29756 704.24316,680.29756 705.39088,680.29756 707.30374,678.34219 708.36644,676.8119 708.91904,676.04676 709.13158,675.40914 709.13158,674.98406 709.13158,674.81403 709.08907,674.51647 708.74901,674.51647 707.94136,674.51647 707.04869,677.27949 705.64593,677.27949 704.83827,677.27949 704.20065,675.87673 704.20065,674.77152 704.20065,673.15622 704.62573,671.20085 704.9658,669.3305 705.30586,667.41764 705.56091,665.46227 705.94348,663.88948 706.24104,662.65675 706.79364,661.63656 706.79364,660.95643 706.79364,660.48884 706.5811,660.31881 706.32605,660.31881 705.47589,660.31881 704.9658,662.4017 704.11564,662.4017 702.71288,662.4017 701.82021,661.93411 700.50246,661.93411 699.39725,661.93411 698.54709,662.14665 697.39938,662.69926 695.14646,663.76196 693.19109,665.80234 691.6608,668.22529 690.34306,670.35069 689.28036,672.77365 689.28036,675.15409 Z M 692.25592,674.89904 C 692.25592,674.1339 692.34093,673.36876 692.46845,672.60361 692.85103,670.3932 693.87122,668.48034 695.10395,666.43996 696.37919,664.27205 698.63211,662.99681 700.37494,662.99681 701.2676,662.99681 703.18046,663.29437 703.18046,664.48459 703.18046,664.61212 702.03275,672.43358 701.01256,674.47396 700.62999,675.23911 698.63211,678.29968 695.57154,678.29968 693.7862,678.29968 692.25592,677.02444 692.25592,674.89904 Z"/>
	<path d="M 711.15402,663.42189 C 711.15402,664.61212 713.66199,663.67694 713.66199,664.56961 713.66199,665.71732 711.87666,672.60361 711.87666,676.51435 711.87666,679.82997 713.44945,680.5101 714.59717,680.5101 717.23266,680.5101 720.84584,677.61955 720.84584,676.51435 720.84584,675.91923 720.50578,675.91923 720.37825,675.91923 719.69813,675.91923 718.72044,677.78959 716.3825,677.78959 716.21247,677.78959 714.63968,677.70457 714.63968,675.45165 714.63968,674.77152 715.61736,669.24548 715.99993,666.60999 716.25498,664.86716 716.12746,664.10202 717.36019,664.10202 718.29536,664.10202 720.12321,664.31456 720.80333,664.31456 721.56848,664.31456 721.82352,664.05951 721.82352,663.08183 721.82352,662.57173 721.61098,662.27418 720.71832,662.27418 720.25073,662.27418 719.91067,662.31668 718.25285,662.31668 716.85009,662.31668 716.76508,662.27418 716.76508,662.01913 716.76508,661.38151 717.53022,659.38364 717.53022,658.83103 717.53022,658.44846 717.31768,658.32094 717.10514,658.32094 716.42501,658.32094 716.34,658.87354 714.63968,660.65887 712.76933,662.61424 711.15402,662.57173 711.15402,663.42189 Z"/>
	<path d="M 723.40296,673.75133 C 723.40296,677.53454 724.72071,680.5101 730.11922,680.5101 733.81741,680.5101 737.51561,677.53454 737.51561,676.55685 737.51561,676.30181 737.34558,676.13177 737.00551,676.13177 736.53792,676.13177 734.83761,677.95962 732.41465,677.95962 728.20636,677.95962 726.2935,675.83422 726.2935,672.64612 726.2935,671.54091 726.42103,670.90329 727.01614,670.90329 731.01189,670.86079 733.30732,669.92561 733.68989,669.75558 734.49754,669.41552 737.81316,667.67269 737.81316,664.61212 737.81316,662.74176 736.11284,661.46653 734.11497,661.46653 731.73452,661.46653 729.77916,662.23167 728.20636,663.71945 725.27331,666.43996 723.40296,670.09564 723.40296,673.75133 Z M 726.88862,669.3305 C 726.88862,668.7779 727.8663,666.05739 729.14154,664.73964 730.24674,663.59192 731.56449,662.74176 732.62719,662.74176 733.34983,662.74176 734.88011,663.12434 734.88011,664.73964 734.88011,667.41764 731.39446,670.18066 727.27119,670.18066 726.97363,670.18066 726.88862,669.62806 726.88862,669.3305 Z"/>
	<path d="M 739.86816,674.6865 C 739.86816,677.8746 741.35593,680.34006 744.96911,680.34006 749.1774,680.34006 751.34531,675.57917 751.72788,675.57917 752.32299,675.57917 751.34531,680.34006 754.32087,680.34006 757.08388,680.34006 759.76189,676.04676 759.76189,675.15409 759.76189,674.98406 759.63436,674.77152 759.2943,674.77152 758.61417,674.77152 757.63649,677.40701 755.76614,677.40701 754.78845,677.40701 754.66093,676.51435 754.66093,675.57917 754.66093,674.30393 755.08601,671.62593 755.5536,668.39532 757.93404,651.00957 758.35912,649.64931 758.35912,648.5441 758.35912,648.16153 758.06157,647.82147 757.67899,647.82147 756.53128,647.82147 756.78633,647.90648 754.40588,648.5016 753.21566,648.79915 751.72788,648.62912 751.72788,649.35175 751.72788,649.64931 751.98293,649.81934 752.40801,649.81934 752.45051,649.81934 753.4282,649.77683 753.89579,649.77683 754.53341,649.77683 755.12852,650.20191 755.12852,650.83953 755.12852,651.13709 753.72575,662.31668 753.59823,662.31668 752.40801,662.31668 751.55785,661.76408 750.45264,661.76408 745.39419,661.76408 739.86816,668.09777 739.86816,674.6865 Z M 742.84371,673.49628 C 742.84371,669.03294 746.32937,662.65675 750.2401,662.65675 751.38782,662.65675 753.08813,663.20935 753.08813,664.35707 753.08813,666.05739 752.45051,673.53879 750.7502,675.66419 749.64499,677.06695 747.98718,677.8746 746.45689,677.8746 743.8639,677.8746 742.84371,675.96174 742.84371,673.49628 Z"/>
	<path d="M 771.07033,676.98193 C 771.07033,679.4474 773.74833,680.5526 776.2563,680.5526 782.84504,680.5526 787.86098,672.94368 787.86098,667.16259 787.86098,664.39958 786.3732,661.76408 783.1851,661.76408 778.29668,661.76408 776.29881,665.71732 775.7037,665.71732 775.61868,665.71732 775.49116,665.37726 775.49116,665.0797 775.49116,662.01913 778.21167,649.35175 778.21167,648.58661 778.21167,648.11902 777.8716,647.82147 777.40402,647.82147 777.14897,647.82147 776.38383,648.07652 774.72601,648.28906 772.77065,648.5441 771.58043,648.5016 771.58043,649.35175 771.58043,649.94687 771.92049,649.94687 772.38808,649.94687 773.0257,649.94687 773.49328,649.86185 774.1309,649.86185 774.98106,649.86185 775.1936,650.15941 775.1936,650.37195 775.1936,651.39214 774.93855,652.87992 774.55598,654.70776 773.91836,657.85335 773.40827,661.97662 772.64312,666.39745 772.04801,669.8406 771.07033,674.26142 771.07033,676.98193 Z M 773.87586,676.47184 C 773.87586,676.04676 774.34344,671.49841 775.57617,668.14028 776.93643,664.44208 779.69945,664.017 780.71964,664.017 783.05758,664.017 784.88542,665.97237 784.88542,668.35282 784.88542,673.24123 780.97469,679.36238 777.14897,679.36238 774.51348,679.36238 773.87586,677.91711 773.87586,676.47184 Z"/>
	<path d="M 789.50617,685.3135 C 789.50617,687.26886 791.20649,687.82147 793.03433,687.82147 797.03008,687.82147 799.75059,682.97556 801.74847,677.91711 804.25644,671.58342 805.27663,665.71732 805.27663,663.80446 805.27663,662.48672 804.55399,661.55154 803.61882,661.55154 802.59863,661.55154 802.17355,662.35919 802.17355,663.12434 802.17355,664.27205 803.23625,665.12221 803.23625,666.35494 803.23625,669.20298 802.30107,673.75133 801.70596,673.75133 801.23837,673.75133 797.20011,661.67907 793.07684,661.67907 790.48385,661.67907 789.6337,665.37726 789.6337,667.16259 789.6337,667.88523 789.80373,668.09777 790.05877,668.09777 791.33401,668.09777 790.44135,664.90967 792.90681,664.90967 795.15973,664.90967 799.83561,675.87673 799.83561,678.25717 799.83561,679.87248 797.03008,685.3135 794.56462,685.3135 792.60925,685.3135 792.56675,683.91073 790.86643,683.91073 790.14379,683.91073 789.50617,684.59086 789.50617,685.3135 Z"/>
	<path d="M 544.15972,701.40351 521.84393,701.40351 521.84393,740 530.63925,740 530.63925,724.51462 543.13048,724.51462 543.13048,716.79532 530.63925,716.79532 530.63925,709.12281 544.15972,709.12281 544.15972,701.40351 Z"/>
	<path d="M 556.30007,729.9883 C 553.3527,729.9883 550.96674,732.37427 550.96674,735.36842 550.96674,738.31579 553.3527,740.70175 556.30007,740.70175 559.29422,740.70175 561.68019,738.31579 561.68019,735.36842 561.68019,732.37427 559.29422,729.9883 556.30007,729.9883 Z"/>
	<path d="M 590.11513,701.40351 590.11513,740 598.91045,740 598.91045,725.68421 604.197,725.68421 C 611.72917,725.68421 617.38999,721.23977 617.38999,713.28655 617.38999,705.28655 611.72917,701.40351 604.197,701.40351 L 590.11513,701.40351 Z M 598.91045,718.66667 598.91045,708.42105 601.38999,708.42105 C 604.85197,708.42105 608.12683,709.59064 608.12683,713.56725 608.12683,717.49708 604.85197,718.66667 601.38999,718.66667 L 598.91045,718.66667 Z"/>
	<path d="M 631.60709,729.9883 C 628.65972,729.9883 626.27375,732.37427 626.27375,735.36842 626.27375,738.31579 628.65972,740.70175 631.60709,740.70175 634.60124,740.70175 636.98721,738.31579 636.98721,735.36842 636.98721,732.37427 634.60124,729.9883 631.60709,729.9883 Z"/>
	<path d="M 691.10709,740 700.83808,740 711.83224,701.40351 702.10124,701.40351 695.50475,727.88304 695.27083,727.88304 688.25329,701.40351 681.61001,701.40351 674.59247,727.88304 674.35855,727.88304 667.76206,701.40351 657.98428,701.40351 668.97843,740 678.75621,740 684.93165,718.33918 691.10709,740 Z"/>
	<path d="M 734.24963,701.40351 726.10928,701.40351 710.53033,740 719.98062,740 722.83442,732.2807 737.52448,732.2807 740.37828,740 749.82858,740 734.24963,701.40351 Z M 734.53033,724.5614 725.82858,724.5614 730.13267,713.33333 730.22624,713.33333 734.53033,724.5614 Z"/>
	<path d="M 765.08369,701.40351 756.28837,701.40351 756.28837,740 778.37024,740 778.37024,732.2807 765.08369,732.2807 765.08369,701.40351 Z"/>
	<path d="M 782.7957,709.12281 791.96529,709.12281 791.96529,740 800.76062,740 800.76062,709.12281 809.93021,709.12281 809.93021,701.40351 782.7957,701.40351 782.7957,709.12281 Z"/>
	<path d="M 840.17946,701.40351 818.09759,701.40351 818.09759,740 840.17946,740 840.17946,732.2807 826.89291,732.2807 826.89291,724.51462 839.61806,724.51462 839.61806,716.79532 826.89291,716.79532 826.89291,709.12281 840.17946,709.12281 840.17946,701.40351 Z"/>
	<path d="M 850.23575,701.40351 850.23575,740 859.03107,740 859.03107,724.74854 870.82054,740 882.00183,740 868.71528,724.04678 C 873.44042,722.54971 876.62171,718.66667 876.62171,712.8655 876.62171,705.28655 871.19481,701.40351 864.03692,701.40351 L 850.23575,701.40351 Z M 859.03107,718.52632 859.03107,708.42105 860.06031,708.42105 C 863.38194,708.42105 867.35855,708.65497 867.35855,713.47368 867.35855,718.2924 863.38194,718.52632 860.06031,718.52632 L 859.03107,718.52632 Z"/>
</svg>
